<svg width="22" height="23" viewBox="0 0 22 23" fill="none" xmlns="http://www.w3.org/2000/svg">
<path d="M16.2 22.25C15.07 22.25 13.88 21.98 12.65 21.46C11.45 20.95 10.24 20.25 9.06 19.4C7.89 18.54 6.76 17.58 5.69 16.53C4.63 15.46 3.67 14.33 2.82 13.17C1.96 11.97 1.27 10.77 0.78 9.61C0.26 8.37 0 7.17 0 6.04C0 5.26 0.14 4.52 0.41 3.83C0.69 3.12 1.14 2.46 1.75 1.89C2.52 1.13 3.4 0.75 4.34 0.75C4.73 0.75 5.13 0.84 5.47 1C5.86 1.18 6.19 1.45 6.43 1.81L8.75 5.08C8.96 5.37 9.12 5.65 9.23 5.93C9.36 6.23 9.43 6.53 9.43 6.82C9.43 7.2 9.32 7.57 9.11 7.92C8.96 8.19 8.73 8.48 8.44 8.77L7.76 9.48C7.77 9.51 7.78 9.53 7.79 9.55C7.91 9.76 8.15 10.12 8.61 10.66C9.1 11.22 9.56 11.73 10.02 12.2C10.61 12.78 11.1 13.24 11.56 13.62C12.13 14.1 12.5 14.34 12.72 14.45L12.7 14.5L13.43 13.78C13.74 13.47 14.04 13.24 14.33 13.09C14.88 12.75 15.58 12.69 16.28 12.98C16.54 13.09 16.82 13.24 17.12 13.45L20.44 15.81C20.81 16.06 21.08 16.38 21.24 16.76C21.39 17.14 21.46 17.49 21.46 17.84C21.46 18.32 21.35 18.8 21.14 19.25C20.93 19.7 20.67 20.09 20.34 20.45C19.77 21.08 19.15 21.53 18.43 21.82C17.74 22.1 16.99 22.25 16.2 22.25ZM4.34 2.25C3.79 2.25 3.28 2.49 2.79 2.97C2.33 3.4 2.01 3.87 1.81 4.38C1.6 4.9 1.5 5.45 1.5 6.04C1.5 6.97 1.72 7.98 2.16 9.02C2.61 10.08 3.24 11.18 4.04 12.28C4.84 13.38 5.75 14.45 6.75 15.46C7.75 16.45 8.83 17.37 9.94 18.18C11.02 18.97 12.13 19.61 13.23 20.07C14.94 20.8 16.54 20.97 17.86 20.42C18.37 20.21 18.82 19.89 19.23 19.43C19.46 19.18 19.64 18.91 19.79 18.59C19.91 18.34 19.97 18.08 19.97 17.82C19.97 17.66 19.94 17.5 19.86 17.32C19.83 17.26 19.77 17.15 19.58 17.02L16.26 14.66C16.06 14.52 15.88 14.42 15.71 14.35C15.49 14.26 15.4 14.17 15.06 14.38C14.86 14.48 14.68 14.63 14.48 14.83L13.72 15.58C13.33 15.96 12.73 16.05 12.27 15.88L12 15.76C11.59 15.54 11.11 15.2 10.58 14.75C10.1 14.34 9.58 13.86 8.95 13.24C8.46 12.74 7.97 12.21 7.46 11.62C6.99 11.07 6.65 10.6 6.44 10.21L6.32 9.91C6.26 9.68 6.24 9.55 6.24 9.41C6.24 9.05 6.37 8.73 6.62 8.48L7.37 7.7C7.57 7.5 7.72 7.31 7.82 7.14C7.9 7.01 7.93 6.9 7.93 6.8C7.93 6.72 7.9 6.6 7.85 6.48C7.78 6.32 7.67 6.14 7.53 5.95L5.21 2.67C5.11 2.53 4.99 2.43 4.84 2.36C4.68 2.29 4.51 2.25 4.34 2.25ZM12.7 14.51L12.54 15.19L12.81 14.49C12.76 14.48 12.72 14.49 12.7 14.51Z" fill="white"/>
<path d="M17.25 9.25C16.84 9.25 16.5 8.91 16.5 8.5C16.5 8.14 16.14 7.39 15.54 6.75C14.95 6.12 14.3 5.75 13.75 5.75C13.34 5.75 13 5.41 13 5C13 4.59 13.34 4.25 13.75 4.25C14.72 4.25 15.74 4.77 16.63 5.72C17.46 6.61 18 7.7 18 8.5C18 8.91 17.66 9.25 17.25 9.25Z" fill="white"/>
<path d="M20.75 9.25C20.34 9.25 20 8.91 20 8.5C20 5.05 17.2 2.25 13.75 2.25C13.34 2.25 13 1.91 13 1.5C13 1.09 13.34 0.75 13.75 0.75C18.02 0.75 21.5 4.23 21.5 8.5C21.5 8.91 21.16 9.25 20.75 9.25Z" fill="white"/>
</svg>
