<svg width="18" height="18" viewBox="0 0 18 18" fill="none" xmlns="http://www.w3.org/2000/svg">
<path fill-rule="evenodd" clip-rule="evenodd" d="M11.3542 0.848795C12.2023 0.81527 13.0294 1.18205 13.6737 1.82632L16.1987 4.35132C17.4441 5.59671 17.5309 7.78266 15.9108 8.81103L13.6847 10.2201C13.2895 10.4702 12.7736 10.413 12.4428 10.0822L7.94281 5.5822C7.61204 5.25143 7.55477 4.73554 7.80496 4.34027L9.2121 2.11715C9.70387 1.33318 10.4892 0.882982 11.3542 0.848795ZM11.4332 2.84723C11.2448 2.85468 11.0559 2.94112 10.9059 3.18072L10.9032 3.18493L9.92284 4.7338L13.2912 8.10218L14.839 7.1225C15.1354 6.93392 15.3389 6.31991 14.7845 5.76554L12.2595 3.24054C11.9454 2.92648 11.6392 2.83909 11.4332 2.84723Z" fill="#313131"/>
<path fill-rule="evenodd" clip-rule="evenodd" d="M2.79301 4.30817C3.51276 3.70989 4.46316 3.61922 5.43421 3.67686L5.43591 3.67696L8.71091 3.87696C9.26216 3.91062 9.68176 4.3848 9.64809 4.93606C9.61443 5.48731 9.14025 5.90691 8.58899 5.87324L5.31569 5.67334C4.46238 5.62279 4.17877 5.75701 4.07147 5.8462C3.96798 5.93223 3.79484 6.17028 3.70176 6.98085L3.70142 6.98375L2.88449 13.9192C2.82985 14.3746 2.97015 14.6867 3.15515 14.8713C3.34058 15.0563 3.65325 15.1952 4.10513 15.1406L4.10797 15.1403L11.0395 14.3238C11.8572 14.2259 12.1207 14.0511 12.2163 13.9394C12.2977 13.8443 12.4383 13.58 12.355 12.7501C12.3536 12.7362 12.3525 12.7224 12.3517 12.7085L12.16 9.43352C12.1277 8.88218 12.5485 8.40907 13.0999 8.37681C13.6512 8.34454 14.1243 8.76533 14.1566 9.31668L14.3471 12.5715C14.4437 13.559 14.356 14.5153 13.7357 15.24C13.1251 15.9532 12.2004 16.1992 11.2771 16.3097L4.34477 17.1262L4.34291 17.1265C3.34548 17.2463 2.40474 16.9477 1.74267 16.2872C1.08 15.6262 0.778615 14.6846 0.898605 13.6821L0.898741 13.681L1.71481 6.75268L1.71498 6.7512C1.822 5.82062 2.06981 4.90932 2.79301 4.30817Z" fill="#313131"/>
<path fill-rule="evenodd" clip-rule="evenodd" d="M6.07255 11.9418C6.46372 12.3317 6.46476 12.9649 6.07488 13.356L3.54988 15.8894C3.16 16.2805 2.52684 16.2816 2.13567 15.8917C1.74451 15.5018 1.74346 14.8687 2.13334 14.4775L4.65834 11.9442C5.04822 11.553 5.68139 11.5519 6.07255 11.9418Z" fill="#313131"/>
</svg>
