<svg width="46" height="47" viewBox="0 0 46 47" fill="none" xmlns="http://www.w3.org/2000/svg">
<g filter="url(#filter0_ddd_216_46696)">
<rect x="3" y="2.5" width="40" height="40" rx="5" fill="#234E99"/>
<path d="M31.0297 17.2641L25.9859 12.2203C25.8453 12.0797 25.6555 12 25.4562 12H15.5C15.0852 12 14.75 12.3352 14.75 12.75V32.25C14.75 32.6648 15.0852 33 15.5 33H30.5C30.9148 33 31.25 32.6648 31.25 32.25V17.7961C31.25 17.5969 31.1703 17.4047 31.0297 17.2641ZM29.5203 18.1406H25.1094V13.7297L29.5203 18.1406ZM29.5625 31.3125H16.4375V13.6875H23.5156V18.75C23.5156 19.0111 23.6193 19.2615 23.8039 19.4461C23.9885 19.6307 24.2389 19.7344 24.5 19.7344H29.5625V31.3125ZM23.75 21.5625C23.75 21.4594 23.6656 21.375 23.5625 21.375H22.4375C22.3344 21.375 22.25 21.4594 22.25 21.5625V24.0938H19.7188C19.6156 24.0938 19.5312 24.1781 19.5312 24.2812V25.4062C19.5312 25.5094 19.6156 25.5938 19.7188 25.5938H22.25V28.125C22.25 28.2281 22.3344 28.3125 22.4375 28.3125H23.5625C23.6656 28.3125 23.75 28.2281 23.75 28.125V25.5938H26.2812C26.3844 25.5938 26.4688 25.5094 26.4688 25.4062V24.2812C26.4688 24.1781 26.3844 24.0938 26.2812 24.0938H23.75V21.5625Z" fill="white"/>
</g>
<defs>
<filter id="filter0_ddd_216_46696" x="0" y="0.5" width="46" height="46" filterUnits="userSpaceOnUse" color-interpolation-filters="sRGB">
<feFlood flood-opacity="0" result="BackgroundImageFix"/>
<feColorMatrix in="SourceAlpha" type="matrix" values="0 0 0 0 0 0 0 0 0 0 0 0 0 0 0 0 0 0 127 0" result="hardAlpha"/>
<feOffset dy="1"/>
<feGaussianBlur stdDeviation="1.5"/>
<feColorMatrix type="matrix" values="0 0 0 0 0.227451 0 0 0 0 0.207843 0 0 0 0 0.254902 0 0 0 0.12 0"/>
<feBlend mode="normal" in2="BackgroundImageFix" result="effect1_dropShadow_216_46696"/>
<feColorMatrix in="SourceAlpha" type="matrix" values="0 0 0 0 0 0 0 0 0 0 0 0 0 0 0 0 0 0 127 0" result="hardAlpha"/>
<feOffset dy="1"/>
<feGaussianBlur stdDeviation="0.5"/>
<feColorMatrix type="matrix" values="0 0 0 0 0.227451 0 0 0 0 0.207843 0 0 0 0 0.254902 0 0 0 0.14 0"/>
<feBlend mode="normal" in2="effect1_dropShadow_216_46696" result="effect2_dropShadow_216_46696"/>
<feColorMatrix in="SourceAlpha" type="matrix" values="0 0 0 0 0 0 0 0 0 0 0 0 0 0 0 0 0 0 127 0" result="hardAlpha"/>
<feMorphology radius="1" operator="erode" in="SourceAlpha" result="effect3_dropShadow_216_46696"/>
<feOffset dy="2"/>
<feGaussianBlur stdDeviation="0.5"/>
<feColorMatrix type="matrix" values="0 0 0 0 0.227451 0 0 0 0 0.207843 0 0 0 0 0.254902 0 0 0 0.2 0"/>
<feBlend mode="normal" in2="effect2_dropShadow_216_46696" result="effect3_dropShadow_216_46696"/>
<feBlend mode="normal" in="SourceGraphic" in2="effect3_dropShadow_216_46696" result="shape"/>
</filter>
</defs>
</svg>
