<svg width="46" height="47" viewBox="0 0 46 47" fill="none" xmlns="http://www.w3.org/2000/svg">
<g filter="url(#filter0_ddd_25_3382)">
<rect x="3" y="2.5" width="40" height="40" rx="5" fill="#234E99"/>
<path d="M27.125 17.8125V16.6875C27.125 16.5844 27.0406 16.5 26.9375 16.5H17.9375C17.8344 16.5 17.75 16.5844 17.75 16.6875V17.8125C17.75 17.9156 17.8344 18 17.9375 18H26.9375C27.0406 18 27.125 17.9156 27.125 17.8125ZM17.9375 19.875C17.8344 19.875 17.75 19.9594 17.75 20.0625V21.1875C17.75 21.2906 17.8344 21.375 17.9375 21.375H22.25C22.3531 21.375 22.4375 21.2906 22.4375 21.1875V20.0625C22.4375 19.9594 22.3531 19.875 22.25 19.875H17.9375ZM26.75 22.5938C23.9539 22.5938 21.6875 24.8602 21.6875 27.6562C21.6875 30.4523 23.9539 32.7188 26.75 32.7188C29.5461 32.7188 31.8125 30.4523 31.8125 27.6562C31.8125 24.8602 29.5461 22.5938 26.75 22.5938ZM29.2695 30.1758C28.5969 30.8484 27.7016 31.2188 26.75 31.2188C25.7984 31.2188 24.9031 30.8484 24.2305 30.1758C23.5578 29.5031 23.1875 28.6078 23.1875 27.6562C23.1875 26.7047 23.5578 25.8094 24.2305 25.1367C24.9031 24.4641 25.7984 24.0938 26.75 24.0938C27.7016 24.0938 28.5969 24.4641 29.2695 25.1367C29.9422 25.8094 30.3125 26.7047 30.3125 27.6562C30.3125 28.6078 29.9422 29.5031 29.2695 30.1758ZM28.8359 25.875H27.7977C27.7367 25.875 27.6805 25.9031 27.6453 25.9523L26.157 28.0102L25.6156 27.2625C25.5983 27.2383 25.5754 27.2187 25.5489 27.2053C25.5224 27.1918 25.493 27.1849 25.4633 27.1852H24.4297C24.2773 27.1852 24.1883 27.3586 24.2773 27.4828L26.007 29.8758C26.082 29.9789 26.2344 29.9789 26.3094 29.8758L28.9859 26.1727C29.0773 26.0484 28.9883 25.875 28.8359 25.875ZM21.3125 30.4688H15.875V13.9688H29V22.0312C29 22.1344 29.0844 22.2188 29.1875 22.2188H30.5C30.6031 22.2188 30.6875 22.1344 30.6875 22.0312V13.0312C30.6875 12.6164 30.3523 12.2812 29.9375 12.2812H14.9375C14.5227 12.2812 14.1875 12.6164 14.1875 13.0312V31.4062C14.1875 31.8211 14.5227 32.1562 14.9375 32.1562H21.3125C21.4156 32.1562 21.5 32.0719 21.5 31.9688V30.6562C21.5 30.5531 21.4156 30.4688 21.3125 30.4688Z" fill="white"/>
</g>
<defs>
<filter id="filter0_ddd_25_3382" x="0" y="0.5" width="46" height="46" filterUnits="userSpaceOnUse" color-interpolation-filters="sRGB">
<feFlood flood-opacity="0" result="BackgroundImageFix"/>
<feColorMatrix in="SourceAlpha" type="matrix" values="0 0 0 0 0 0 0 0 0 0 0 0 0 0 0 0 0 0 127 0" result="hardAlpha"/>
<feOffset dy="1"/>
<feGaussianBlur stdDeviation="1.5"/>
<feColorMatrix type="matrix" values="0 0 0 0 0.227451 0 0 0 0 0.207843 0 0 0 0 0.254902 0 0 0 0.12 0"/>
<feBlend mode="normal" in2="BackgroundImageFix" result="effect1_dropShadow_25_3382"/>
<feColorMatrix in="SourceAlpha" type="matrix" values="0 0 0 0 0 0 0 0 0 0 0 0 0 0 0 0 0 0 127 0" result="hardAlpha"/>
<feOffset dy="1"/>
<feGaussianBlur stdDeviation="0.5"/>
<feColorMatrix type="matrix" values="0 0 0 0 0.227451 0 0 0 0 0.207843 0 0 0 0 0.254902 0 0 0 0.14 0"/>
<feBlend mode="normal" in2="effect1_dropShadow_25_3382" result="effect2_dropShadow_25_3382"/>
<feColorMatrix in="SourceAlpha" type="matrix" values="0 0 0 0 0 0 0 0 0 0 0 0 0 0 0 0 0 0 127 0" result="hardAlpha"/>
<feMorphology radius="1" operator="erode" in="SourceAlpha" result="effect3_dropShadow_25_3382"/>
<feOffset dy="2"/>
<feGaussianBlur stdDeviation="0.5"/>
<feColorMatrix type="matrix" values="0 0 0 0 0.227451 0 0 0 0 0.207843 0 0 0 0 0.254902 0 0 0 0.2 0"/>
<feBlend mode="normal" in2="effect2_dropShadow_25_3382" result="effect3_dropShadow_25_3382"/>
<feBlend mode="normal" in="SourceGraphic" in2="effect3_dropShadow_25_3382" result="shape"/>
</filter>
</defs>
</svg>
