<svg width="23" height="22" viewBox="0 0 23 22" fill="none" xmlns="http://www.w3.org/2000/svg">
<path d="M14.8101 18.14C17.9301 18.44 19.5901 16.98 20.4301 13.37L21.4101 9.19001C22.3901 5.01001 21.1101 2.94001 16.9201 1.96001L15.2501 1.57001C11.9101 0.780008 9.92006 1.43001 8.75006 3.85001M14.8101 18.14C14.3101 18.1 13.7701 18.01 13.1901 17.87L11.5101 17.47C7.34006 16.48 6.05006 14.42 7.03006 10.24L8.01006 6.05001C8.21006 5.20001 8.45006 4.46001 8.75006 3.85001M14.8101 18.14C14.1901 18.56 13.41 18.9101 12.46 19.2201L10.88 19.7401C6.90998 21.0201 4.81998 19.9501 3.52998 15.9801L2.24998 12.0301C0.969975 8.0601 2.02997 5.9601 5.99998 4.6801L7.57998 4.1601C7.98998 4.0301 8.38006 3.92001 8.75006 3.85001M12.39 7.28003L17.24 8.51003M11.41 11.1499L14.31 11.8899" stroke="#0E2B63" stroke-width="1.5" stroke-linecap="round" stroke-linejoin="round"/>
</svg>
