<svg width="18" height="23" viewBox="0 0 18 23" fill="none" xmlns="http://www.w3.org/2000/svg">
<path d="M12.75 22.25H4.75C1.73 22.25 0 20.52 0 17.5V7.75C0 4.6 1.6 3 4.75 3C5.16 3 5.5 3.34 5.5 3.75C5.5 4.15 5.66 4.53 5.94 4.81C6.22 5.09 6.6 5.25 7 5.25H10.5C11.33 5.25 12 4.58 12 3.75C12 3.34 12.34 3 12.75 3C15.9 3 17.5 4.6 17.5 7.75V17.5C17.5 20.52 15.77 22.25 12.75 22.25ZM4.09998 4.52C2.51998 4.65 1.5 5.36 1.5 7.75V17.5C1.5 19.72 2.53 20.75 4.75 20.75H12.75C14.97 20.75 16 19.72 16 17.5V7.75C16 5.36 14.98 4.66 13.4 4.52C13.06 5.8 11.89 6.75 10.5 6.75H7C6.2 6.75 5.45001 6.44 4.88 5.87C4.5 5.49 4.23998 5.03 4.09998 4.52Z" fill="white"/>
<path d="M10.5 6.75H7C6.2 6.75 5.45001 6.44 4.88 5.87C4.31 5.29999 4 4.55 4 3.75C4 2.1 5.35 0.75 7 0.75H10.5C11.3 0.75 12.05 1.06 12.62 1.63C13.19 2.2 13.5 2.95 13.5 3.75C13.5 5.4 12.15 6.75 10.5 6.75ZM7 2.25C6.17 2.25 5.5 2.92 5.5 3.75C5.5 4.15 5.66 4.53 5.94 4.81C6.22 5.09 6.6 5.25 7 5.25H10.5C11.33 5.25 12 4.58 12 3.75C12 3.35 11.84 2.97 11.56 2.69C11.28 2.41 10.9 2.25 10.5 2.25H7Z" fill="white"/>
<path d="M8.75 13.25H4.75C4.34 13.25 4 12.91 4 12.5C4 12.09 4.34 11.75 4.75 11.75H8.75C9.16 11.75 9.5 12.09 9.5 12.5C9.5 12.91 9.16 13.25 8.75 13.25Z" fill="white"/>
<path d="M12.75 17.25H4.75C4.34 17.25 4 16.91 4 16.5C4 16.09 4.34 15.75 4.75 15.75H12.75C13.16 15.75 13.5 16.09 13.5 16.5C13.5 16.91 13.16 17.25 12.75 17.25Z" fill="white"/>
</svg>
