<svg width="20" height="20" viewBox="0 0 20 20" fill="none" xmlns="http://www.w3.org/2000/svg">
<path d="M12.3399 10.5219V12.9789C12.3399 15.0309 11.5209 15.8499 9.4689 15.8499H7.0209C4.9779 15.8499 4.1499 15.0309 4.1499 12.9789V10.5219C4.1499 8.47891 4.9689 7.65991 7.0209 7.65991H9.4779C11.5209 7.65991 12.3399 8.47891 12.3399 10.5219Z" stroke="#234E99" stroke-width="1.8" stroke-linecap="round" stroke-linejoin="round"/>
<path d="M15.8502 7.0119V9.4689C15.8502 11.5209 15.0312 12.3399 12.9792 12.3399H12.3402V10.5219C12.3402 8.4789 11.5212 7.6599 9.46916 7.6599H7.66016V7.0119C7.66016 4.9599 8.47916 4.1499 10.5312 4.1499H12.9882C15.0312 4.1499 15.8502 4.9689 15.8502 7.0119Z" stroke="#234E99" stroke-width="1.8" stroke-linecap="round" stroke-linejoin="round"/>
<path d="M19.0002 12.7C19.0002 16.183 16.1832 19 12.7002 19L13.6452 17.425" stroke="#234E99" stroke-width="1.8" stroke-linecap="round" stroke-linejoin="round"/>
<path d="M1 7.3C1 3.817 3.817 1 7.3 1L6.355 2.575" stroke="#234E99" stroke-width="1.8" stroke-linecap="round" stroke-linejoin="round"/>
</svg>
