<svg width="13" height="16" viewBox="0 0 13 16" fill="none" xmlns="http://www.w3.org/2000/svg">
<path d="M4 11.5V10M6.25 11.5V8.5M8.5 11.5V7M10 14.5H2.5C2.10218 14.5 1.72064 14.342 1.43934 14.0607C1.15804 13.7794 1 13.3978 1 13V2.5C1 2.10218 1.15804 1.72064 1.43934 1.43934C1.72064 1.15804 2.10218 1 2.5 1H6.6895C6.8884 1.00004 7.07913 1.07909 7.21975 1.21975L11.2803 5.28025C11.4209 5.42087 11.5 5.6116 11.5 5.8105V13C11.5 13.3978 11.342 13.7794 11.0607 14.0607C10.7794 14.342 10.3978 14.5 10 14.5Z" stroke="#234E99" stroke-width="1.4" stroke-linecap="round" stroke-linejoin="round"/>
</svg>
