<svg width="21" height="23" viewBox="0 0 21 23" fill="none" xmlns="http://www.w3.org/2000/svg">
<path fill-rule="evenodd" clip-rule="evenodd" d="M7.75006 2.25C5.70537 2.25 4.06006 3.90311 4.06006 5.94C4.06006 7.92302 5.60913 9.53198 7.56494 9.61885C7.68355 9.6106 7.80885 9.6102 7.92706 9.61877C9.88094 9.53098 11.431 7.92308 11.4401 5.93847C11.4392 3.90339 9.78534 2.25 7.75006 2.25ZM2.56006 5.94C2.56006 3.07689 4.87474 0.75 7.75006 0.75C10.6143 0.75 12.9401 3.07579 12.9401 5.94L12.9401 5.94313C12.9284 8.74352 10.721 11.0259 7.93525 11.1196C7.90194 11.1207 7.8686 11.1196 7.83543 11.1163C7.78721 11.1115 7.71515 11.1108 7.64796 11.1169C7.61701 11.1197 7.58592 11.1206 7.55486 11.1196C4.76965 11.026 2.56006 8.74337 2.56006 5.94ZM14.41 3.5C14.41 3.08579 14.7458 2.75 15.16 2.75C17.5156 2.75 19.41 4.65718 19.41 7C19.41 9.29545 17.5889 11.1645 15.3181 11.2495C15.2776 11.251 15.2372 11.2492 15.197 11.2442C15.182 11.2423 15.1514 11.2411 15.1129 11.2454C14.7012 11.2912 14.3304 10.9945 14.2846 10.5828C14.2389 10.1711 14.5355 9.80033 14.9472 9.75459C15.065 9.7415 15.1883 9.73848 15.3101 9.74831C16.7568 9.66901 17.91 8.46831 17.91 7C17.91 5.48282 16.6844 4.25 15.16 4.25C14.7458 4.25 14.41 3.91421 14.41 3.5ZM7.92247 11.9375C9.85067 11.9375 11.817 12.4214 13.3365 13.4363C14.7024 14.3454 15.485 15.6198 15.485 16.9912C15.485 18.3626 14.7025 19.6393 13.3372 20.5532L13.337 20.5533C11.8128 21.5732 9.84405 22.06 7.91497 22.06C5.9862 22.06 4.01776 21.5733 2.49365 20.5538C1.12763 19.6447 0.344971 18.3703 0.344971 16.9988C0.344971 15.6274 1.12741 14.3507 2.49276 13.4368L2.49551 13.4349C4.02395 12.4215 5.99403 11.9375 7.92247 11.9375ZM3.32582 14.6842C2.27216 15.39 1.84497 16.2429 1.84497 16.9988C1.84497 17.7544 2.27198 18.6047 3.3254 19.3056L3.32704 19.3067C4.55283 20.1268 6.21405 20.56 7.91497 20.56C9.61582 20.56 11.277 20.1269 12.5028 19.3068C13.5574 18.6007 13.985 17.7474 13.985 16.9912C13.985 16.2355 13.558 15.3853 12.5045 14.6844L12.5034 14.6837C11.283 13.8686 9.62427 13.4375 7.92247 13.4375C6.22155 13.4375 4.55725 13.8682 3.32582 14.6842ZM16.3883 13.3351C16.4794 12.931 16.8808 12.6773 17.2848 12.7683C18.0742 12.9462 18.8489 13.2636 19.5025 13.7619C20.4436 14.4688 20.97 15.454 20.97 16.495C20.97 17.5357 20.4439 18.5207 19.5033 19.2275C18.8419 19.7344 18.0552 20.065 17.2429 20.2342C16.8374 20.3187 16.4402 20.0585 16.3557 19.653C16.2712 19.2475 16.5315 18.8502 16.937 18.7658C17.5633 18.6353 18.1353 18.3867 18.5932 18.0351L18.5999 18.03L18.6 18.03C19.2173 17.567 19.47 17.003 19.47 16.495C19.47 15.987 19.2173 15.423 18.6 14.96L18.5948 14.9561L18.5948 14.9561C18.1489 14.6156 17.5846 14.3735 16.9551 14.2317C16.551 14.1406 16.2973 13.7392 16.3883 13.3351Z" fill="white"/>
</svg>
