<svg width="14" height="14" viewBox="0 0 14 14" fill="none" xmlns="http://www.w3.org/2000/svg">
<path d="M11.6668 4.81258V10.5001C11.6668 12.2501 10.6227 12.8334 9.3335 12.8334H4.66683C3.37766 12.8334 2.3335 12.2501 2.3335 10.5001V4.81258C2.3335 2.91675 3.37766 2.47925 4.66683 2.47925C4.66683 2.84091 4.81265 3.16758 5.05181 3.40675C5.29098 3.64591 5.61766 3.79175 5.97933 3.79175H8.021C8.74433 3.79175 9.3335 3.20258 9.3335 2.47925C10.6227 2.47925 11.6668 2.91675 11.6668 4.81258Z" stroke="white" stroke-width="1.2" stroke-linecap="round" stroke-linejoin="round"/>
<path d="M9.33317 2.47925C9.33317 3.20258 8.744 3.79175 8.02067 3.79175H5.979C5.61734 3.79175 5.29065 3.64591 5.05149 3.40675C4.81232 3.16758 4.6665 2.84091 4.6665 2.47925C4.6665 1.75591 5.25567 1.16675 5.979 1.16675H8.02067C8.38234 1.16675 8.70902 1.31258 8.94819 1.55175C9.18735 1.79092 9.33317 2.11758 9.33317 2.47925Z" stroke="white" stroke-width="1.2" stroke-linecap="round" stroke-linejoin="round"/>
<path d="M4.6665 7.58325H6.99984" stroke="white" stroke-width="1.2" stroke-linecap="round" stroke-linejoin="round"/>
<path d="M4.6665 9.91675H9.33317" stroke="white" stroke-width="1.2" stroke-linecap="round" stroke-linejoin="round"/>
</svg>
